<svg xmlns="http://www.w3.org/2000/svg" width="157.881" height="22" viewBox="0 0 157.881 22"><g transform="translate(-90.951 -219.123)"><path d="M101.732,220.2v2.53H94.155v5.06h6.4v2.542h-6.4V237.3h-3.2V220.2Z" transform="translate(0 -0.442)" fill="#2e2e2e"/><path d="M120.617,240.577h-1.312a1.413,1.413,0,0,1-.65-.124.8.8,0,0,1-.355-.5l-.26-.863a9.943,9.943,0,0,1-.9.727,5.512,5.512,0,0,1-.916.526,4.671,4.671,0,0,1-1,.319,6.047,6.047,0,0,1-1.182.106,4.643,4.643,0,0,1-1.419-.207,3.051,3.051,0,0,1-1.117-.623,2.823,2.823,0,0,1-.727-1.031,3.678,3.678,0,0,1-.26-1.435,2.837,2.837,0,0,1,.361-1.358,3.4,3.4,0,0,1,1.2-1.21,7.653,7.653,0,0,1,2.234-.9,14.282,14.282,0,0,1,3.464-.356v-.715a2.712,2.712,0,0,0-.514-1.817,1.877,1.877,0,0,0-1.5-.589,3.613,3.613,0,0,0-1.182.165,4.6,4.6,0,0,0-.822.372q-.348.207-.644.372a1.305,1.305,0,0,1-.65.165.847.847,0,0,1-.508-.154,1.212,1.212,0,0,1-.343-.378l-.532-.934a7.213,7.213,0,0,1,5.048-1.915,4.881,4.881,0,0,1,1.9.349,4.029,4.029,0,0,1,1.413.969,4.153,4.153,0,0,1,.881,1.484,5.7,5.7,0,0,1,.3,1.891Zm-5.674-1.821a3.929,3.929,0,0,0,.828-.082,3.161,3.161,0,0,0,.715-.244,3.781,3.781,0,0,0,.65-.4,5.911,5.911,0,0,0,.632-.564v-2.03a11.866,11.866,0,0,0-2.134.161,5.633,5.633,0,0,0-1.377.411,1.772,1.772,0,0,0-.739.583,1.3,1.3,0,0,0-.219.726,1.282,1.282,0,0,0,.455,1.108A1.962,1.962,0,0,0,114.943,238.756Z" transform="translate(-7.998 -3.721)" fill="#2e2e2e"/><path d="M140.429,231.037a1.461,1.461,0,0,1-.254.26.585.585,0,0,1-.361.095.8.8,0,0,1-.437-.136q-.213-.136-.508-.307a3.794,3.794,0,0,0-.7-.307,3.237,3.237,0,0,0-1.011-.136,3.085,3.085,0,0,0-1.348.278,2.557,2.557,0,0,0-.963.8,3.6,3.6,0,0,0-.573,1.259,6.773,6.773,0,0,0-.189,1.673,6.567,6.567,0,0,0,.207,1.726,3.683,3.683,0,0,0,.6,1.271,2.567,2.567,0,0,0,.946.78,2.866,2.866,0,0,0,1.253.266,3.111,3.111,0,0,0,1.129-.171,3.568,3.568,0,0,0,.727-.378q.3-.207.514-.378a.776.776,0,0,1,.491-.171.592.592,0,0,1,.532.272l.839,1.064a5.277,5.277,0,0,1-1.052.952,5.69,5.69,0,0,1-1.176.615,5.989,5.989,0,0,1-1.259.325,9,9,0,0,1-1.289.095,5.382,5.382,0,0,1-2.116-.42,4.933,4.933,0,0,1-1.732-1.224,5.906,5.906,0,0,1-1.17-1.968,7.6,7.6,0,0,1-.432-2.654,7.719,7.719,0,0,1,.384-2.477,5.611,5.611,0,0,1,1.129-1.974,5.181,5.181,0,0,1,1.844-1.306,6.357,6.357,0,0,1,2.53-.473,6.021,6.021,0,0,1,2.382.437,5.82,5.82,0,0,1,1.838,1.253Z" transform="translate(-16.414 -3.746)" fill="#2e2e2e"/><path d="M185.625,230.99q.165.408.324.822.159-.426.329-.839t.364-.792l4.858-9.469a1.324,1.324,0,0,1,.187-.284.58.58,0,0,1,.216-.154.918.918,0,0,1,.267-.059c.1-.008.216-.012.352-.012h2.3V237.3h-2.689V226.256c0-.2.005-.43.017-.674s.028-.492.051-.745l-4.96,9.694a1.347,1.347,0,0,1-.442.514,1.11,1.11,0,0,1-.635.183h-.42a1.109,1.109,0,0,1-.635-.183,1.349,1.349,0,0,1-.443-.514l-5.027-9.729c.03.26.051.514.062.762s.017.479.017.692V237.3h-2.689V220.2h2.3c.136,0,.254,0,.352.012a.914.914,0,0,1,.267.059.624.624,0,0,1,.222.154,1.208,1.208,0,0,1,.193.284l4.9,9.493Q185.46,230.583,185.625,230.99Z" transform="translate(-35.199 -0.442)" fill="#2e2e2e"/><path d="M220.9,240.577h-1.312a1.413,1.413,0,0,1-.65-.124.8.8,0,0,1-.355-.5l-.26-.863a9.947,9.947,0,0,1-.9.727,5.512,5.512,0,0,1-.916.526,4.67,4.67,0,0,1-1,.319,6.047,6.047,0,0,1-1.182.106,4.643,4.643,0,0,1-1.419-.207,3.051,3.051,0,0,1-1.117-.623,2.823,2.823,0,0,1-.727-1.031,3.678,3.678,0,0,1-.26-1.435,2.837,2.837,0,0,1,.361-1.358,3.4,3.4,0,0,1,1.2-1.21,7.653,7.653,0,0,1,2.234-.9,14.282,14.282,0,0,1,3.464-.356v-.715a2.712,2.712,0,0,0-.514-1.817,1.877,1.877,0,0,0-1.5-.589,3.613,3.613,0,0,0-1.182.165,4.6,4.6,0,0,0-.822.372q-.348.207-.644.372a1.305,1.305,0,0,1-.65.165.847.847,0,0,1-.508-.154,1.212,1.212,0,0,1-.343-.378l-.532-.934a7.213,7.213,0,0,1,5.048-1.915,4.881,4.881,0,0,1,1.9.349,4.029,4.029,0,0,1,1.413.969,4.153,4.153,0,0,1,.881,1.484,5.7,5.7,0,0,1,.3,1.891Zm-5.674-1.821a3.929,3.929,0,0,0,.828-.082,3.161,3.161,0,0,0,.715-.244,3.781,3.781,0,0,0,.65-.4,5.911,5.911,0,0,0,.632-.564v-2.03a11.871,11.871,0,0,0-2.134.161,5.634,5.634,0,0,0-1.377.411,1.772,1.772,0,0,0-.739.583,1.3,1.3,0,0,0-.219.726,1.282,1.282,0,0,0,.455,1.108A1.962,1.962,0,0,0,215.222,238.756Z" transform="translate(-49.004 -3.721)" fill="#2e2e2e"/><path d="M231.949,240.577V228.448h1.714a.917.917,0,0,1,.627.166.954.954,0,0,1,.236.567l.177,1.466a5.761,5.761,0,0,1,1.525-1.773,3.211,3.211,0,0,1,1.963-.65,2.537,2.537,0,0,1,1.49.414l-.379,2.187a.452.452,0,0,1-.154.3.519.519,0,0,1-.319.089,2,2,0,0,1-.485-.083,3.248,3.248,0,0,0-.816-.083,2.477,2.477,0,0,0-1.56.5,3.875,3.875,0,0,0-1.1,1.472v7.554Z" transform="translate(-57.657 -3.721)" fill="#2e2e2e"/><path d="M273.033,228.283a5.9,5.9,0,0,1,2.11.366,4.621,4.621,0,0,1,1.661,1.07,4.885,4.885,0,0,1,1.088,1.726,6.516,6.516,0,0,1,.39,2.335,4.264,4.264,0,0,1-.03.55.872.872,0,0,1-.106.343.431.431,0,0,1-.207.177.882.882,0,0,1-.331.053h-7.495a4.176,4.176,0,0,0,1,2.743,3.131,3.131,0,0,0,2.317.875,4.007,4.007,0,0,0,1.224-.165,5.677,5.677,0,0,0,.9-.366q.384-.2.674-.366a1.128,1.128,0,0,1,.562-.165.633.633,0,0,1,.307.071.684.684,0,0,1,.225.2l.851,1.064a4.866,4.866,0,0,1-1.088.952,6.108,6.108,0,0,1-1.259.615,6.891,6.891,0,0,1-1.336.325,9.629,9.629,0,0,1-1.318.095,6.483,6.483,0,0,1-2.352-.42,5.261,5.261,0,0,1-1.891-1.241,5.821,5.821,0,0,1-1.265-2.033,7.869,7.869,0,0,1-.461-2.808,6.7,6.7,0,0,1,.4-2.335,5.608,5.608,0,0,1,1.153-1.9,5.43,5.43,0,0,1,1.832-1.283A6.04,6.04,0,0,1,273.033,228.283Zm.059,2.092a2.7,2.7,0,0,0-2,.721,3.556,3.556,0,0,0-.922,2.045h5.485a3.646,3.646,0,0,0-.154-1.07,2.464,2.464,0,0,0-.473-.881,2.236,2.236,0,0,0-.8-.6A2.736,2.736,0,0,0,273.092,230.375Z" transform="translate(-72.074 -3.746)" fill="#2e2e2e"/><path d="M309.493,221.331a1.657,1.657,0,0,1-.154.709,1.928,1.928,0,0,1-1,.975,1.829,1.829,0,0,1-.733.148,1.758,1.758,0,0,1-.715-.148,1.888,1.888,0,0,1-.585-.4,1.912,1.912,0,0,1-.4-.579,1.724,1.724,0,0,1-.148-.709,1.839,1.839,0,0,1,.148-.733,1.869,1.869,0,0,1,.4-.591,1.888,1.888,0,0,1,.585-.4,1.757,1.757,0,0,1,.715-.148,1.829,1.829,0,0,1,.733.148,1.945,1.945,0,0,1,.6.4,1.9,1.9,0,0,1,.408.591A1.766,1.766,0,0,1,309.493,221.331Zm-.437,3.535v12.129h-2.92V224.865Z" transform="translate(-87.838 -0.139)" fill="#2e2e2e"/><path d="M316.917,240.6V228.472H318.7a.717.717,0,0,1,.745.532l.2.958a6.632,6.632,0,0,1,.774-.686,5.429,5.429,0,0,1,.863-.532,4.421,4.421,0,0,1,.975-.343,5.134,5.134,0,0,1,1.135-.118,4.35,4.35,0,0,1,1.761.337,3.477,3.477,0,0,1,1.283.946,4.161,4.161,0,0,1,.78,1.454,6.181,6.181,0,0,1,.266,1.862V240.6h-2.92v-7.719a2.591,2.591,0,0,0-.514-1.72,1.905,1.905,0,0,0-1.543-.609,3.039,3.039,0,0,0-1.419.343,5.1,5.1,0,0,0-1.253.934V240.6Z" transform="translate(-92.402 -3.746)" fill="#2e2e2e"/><path d="M343.836,228.243a6.457,6.457,0,0,1,1.466.16,4.989,4.989,0,0,1,1.253.467h3.487v1.088a.6.6,0,0,1-.142.426.847.847,0,0,1-.485.213l-1.088.2a3.814,3.814,0,0,1,.183.65,3.882,3.882,0,0,1,.064.721,3.57,3.57,0,0,1-1.353,2.861,4.613,4.613,0,0,1-1.5.786,6.15,6.15,0,0,1-1.886.278,6.774,6.774,0,0,1-1.336-.13q-.567.346-.567.774a.571.571,0,0,0,.337.542,2.741,2.741,0,0,0,.887.244,9.709,9.709,0,0,0,1.247.072q.7,0,1.43.059a11.389,11.389,0,0,1,1.43.207,4.2,4.2,0,0,1,1.247.469,2.5,2.5,0,0,1,.887.872,2.689,2.689,0,0,1,.337,1.417,3.343,3.343,0,0,1-.4,1.565,4.2,4.2,0,0,1-1.146,1.352,6,6,0,0,1-1.838.955,7.857,7.857,0,0,1-2.483.362,9.553,9.553,0,0,1-2.4-.266,5.6,5.6,0,0,1-1.685-.709,3.072,3.072,0,0,1-1-1.023,2.4,2.4,0,0,1-.331-1.206,2.061,2.061,0,0,1,.52-1.43,3.565,3.565,0,0,1,1.442-.922,2,2,0,0,1-.721-.662,1.925,1.925,0,0,1-.272-1.076,1.8,1.8,0,0,1,.1-.562,2.229,2.229,0,0,1,.29-.573,2.833,2.833,0,0,1,.49-.538,3.414,3.414,0,0,1,.7-.455,3.821,3.821,0,0,1-1.448-1.324,3.531,3.531,0,0,1-.526-1.939,3.56,3.56,0,0,1,1.365-2.867,4.579,4.579,0,0,1,1.525-.786A6.476,6.476,0,0,1,343.836,228.243Zm3.2,12.851a.833.833,0,0,0-.213-.591,1.387,1.387,0,0,0-.579-.356,4.213,4.213,0,0,0-.857-.187,8.536,8.536,0,0,0-1.04-.06h-1.135a4.832,4.832,0,0,1-1.13-.13,2.648,2.648,0,0,0-.8.644,1.323,1.323,0,0,0-.3.857,1.174,1.174,0,0,0,.16.6,1.334,1.334,0,0,0,.508.479,3.042,3.042,0,0,0,.9.313,6.973,6.973,0,0,0,1.359.112,6.829,6.829,0,0,0,1.406-.126,3.36,3.36,0,0,0,.976-.35,1.49,1.49,0,0,0,.562-.531A1.322,1.322,0,0,0,347.039,241.094Zm-3.2-6.869a2.737,2.737,0,0,0,.946-.148,1.863,1.863,0,0,0,.668-.408,1.686,1.686,0,0,0,.4-.627,2.3,2.3,0,0,0,.136-.8,1.9,1.9,0,0,0-.538-1.424,2.739,2.739,0,0,0-3.228,0,1.9,1.9,0,0,0-.537,1.424,2.25,2.25,0,0,0,.136.792,1.741,1.741,0,0,0,.4.632,1.816,1.816,0,0,0,.674.414A2.746,2.746,0,0,0,343.836,234.225Z" transform="translate(-101.21 -3.729)" fill="#2e2e2e"/><g transform="translate(126.079 221.373)"><path d="M155.41,222.929v3.036h2.373v2.078H155.41v6.973a1.535,1.535,0,0,0,.283,1.033,1.312,1.312,0,0,0,1.01.317,6.832,6.832,0,0,0,.774-.044.332.332,0,0,1,.375.331v1.505a.34.34,0,0,1-.257.329,8.162,8.162,0,0,1-1.758.2q-3.233,0-3.232-3.567v-7.077h-2.223v-2.078h2.223v-3.036Z" transform="translate(-150.382 -222.929)" fill="#2e2e2e"/></g><g transform="translate(207.654 221.373)"><path d="M293.419,222.929v3.036h2.373v2.078h-2.373v6.973a1.535,1.535,0,0,0,.283,1.033,1.312,1.312,0,0,0,1.01.317,6.85,6.85,0,0,0,.775-.044.331.331,0,0,1,.374.331v1.505a.34.34,0,0,1-.257.329,8.161,8.161,0,0,1-1.758.2q-3.233,0-3.233-3.567v-7.077h-2.222v-2.078h2.222v-3.036Z" transform="translate(-288.391 -222.929)" fill="#2e2e2e"/></g><g transform="translate(183.82 219.123)"><path d="M252.12,231.5l-1.247,1.281v4.075h-2.805V219.123h2.805v10.229l.877-1.1,3.052-3.439a1.342,1.342,0,0,1,1-.451h2.768l-4.641,5.207,5.137,7.284h-2.542a1.341,1.341,0,0,1-1.1-.577Z" transform="translate(-248.068 -219.123)" fill="#2e2e2e"/></g></g></svg>