<svg xmlns="http://www.w3.org/2000/svg" width="46.485" height="60.2" viewBox="0 0 46.485 60.2">
  <g id="Group_166" data-name="Group 166" transform="translate(-752.758 -4065.9)">
    <g id="Group_130" data-name="Group 130" transform="translate(451.716 3787.202)">
      <g id="_2_PT" data-name=" 2 PT">
        <g id="Group_129" data-name="Group 129">
          <g id="Group_127" data-name="Group 127">
            <path id="Path_67" data-name="Path 67" d="M302,338.9a.958.958,0,0,1-.957-.957V279.655A.958.958,0,0,1,302,278.7H346.57a.958.958,0,0,1,.957.957v46.386h-1.914V280.612H302.956v56.371H334.67V338.9Z" fill="#2e2e2e"/>
          </g>
          <g id="Group_128" data-name="Group 128">
            <path id="Path_68" data-name="Path 68" d="M334.57,338.9a.958.958,0,0,1-.957-.957v-12a.959.959,0,0,1,.957-.958h12a.958.958,0,0,1,.677,1.635l-12,12A.964.964,0,0,1,334.57,338.9Zm.957-3.268,8.733-8.732h-8.733Z" fill="#2e2e2e"/>
          </g>
        </g>
      </g>
    </g>
    <g id="Group_132" data-name="Group 132" transform="translate(451.716 3787.202)">
      <g id="Group_131" data-name="Group 131">
        <rect id="Rectangle_86" data-name="Rectangle 86" width="18" height="2.5" rx="1.116" transform="translate(321.968 292.535)" fill="#2e2e2e"/>
      </g>
      <path id="Path_69" data-name="Path 69" d="M311.337,297.016l-2.533-2.533a.7.7,0,0,1,0-.982l.5-.5a.693.693,0,0,1,.981,0l1.54,1.541,5.063-5.063a.694.694,0,0,1,.981,0l.5.5a.693.693,0,0,1,0,.981l-6.056,6.056A.693.693,0,0,1,311.337,297.016Z" fill="#2e2e2e"/>
    </g>
    <g id="Group_134" data-name="Group 134" transform="translate(451.716 3787.202)">
      <g id="Group_133" data-name="Group 133">
        <rect id="Rectangle_87" data-name="Rectangle 87" width="18" height="2.5" rx="1.116" transform="translate(321.968 304.661)" fill="#2e2e2e"/>
      </g>
      <path id="Path_70" data-name="Path 70" d="M311.337,309.143l-2.533-2.534a.694.694,0,0,1,0-.981l.5-.5a.693.693,0,0,1,.981,0l1.54,1.541,5.063-5.063a.694.694,0,0,1,.981,0l.5.5a.693.693,0,0,1,0,.981l-6.056,6.057A.693.693,0,0,1,311.337,309.143Z" fill="#2e2e2e"/>
    </g>
    <g id="Group_136" data-name="Group 136" transform="translate(451.716 3787.202)">
      <g id="Group_135" data-name="Group 135">
        <rect id="Rectangle_88" data-name="Rectangle 88" width="18" height="2.5" rx="1.116" transform="translate(321.968 316.788)" fill="#2e2e2e"/>
      </g>
      <path id="Path_71" data-name="Path 71" d="M311.337,321.269l-2.533-2.534a.693.693,0,0,1,0-.981l.5-.5a.693.693,0,0,1,.981,0l1.54,1.54,5.063-5.063a.694.694,0,0,1,.981,0l.5.5a.694.694,0,0,1,0,.981l-6.056,6.056A.693.693,0,0,1,311.337,321.269Z" fill="#2e2e2e"/>
    </g>
  </g>
</svg>
