<svg xmlns="http://www.w3.org/2000/svg" width="58.008" height="38.188" viewBox="0 0 58.008 38.188">
  <g id="_2_PT" data-name=" 2 PT" transform="translate(-87.632 -99.286)">
    <g id="Group_87" data-name="Group 87">
      <g id="Group_83" data-name="Group 83">
        <path id="Path_41" data-name="Path 41" d="M91.861,137.474a4.241,4.241,0,0,1-4.229-4.229v-29.73a4.241,4.241,0,0,1,4.229-4.229H141.41a4.242,4.242,0,0,1,4.23,4.229v29.73a4.242,4.242,0,0,1-4.23,4.229Zm0-36.336a2.379,2.379,0,0,0-2.377,2.377v29.73a2.379,2.379,0,0,0,2.377,2.377H141.41a2.38,2.38,0,0,0,2.378-2.377v-29.73a2.38,2.38,0,0,0-2.378-2.377Z" fill="#2e2e2e"/>
      </g>
      <g id="Group_84" data-name="Group 84">
        <path id="Path_42" data-name="Path 42" d="M116.635,126.738a.928.928,0,0,1-.6-.224l-27.774-23.89,1.2-1.4,27.174,23.372,27.17-23.372,1.2,1.4-27.773,23.89a.928.928,0,0,1-.6.224Z" fill="#2e2e2e"/>
      </g>
      <g id="Group_85" data-name="Group 85">
        <rect id="Rectangle_65" data-name="Rectangle 65" width="1.851" height="25.305" transform="translate(125.88 117.743) rotate(-42.51)" fill="#2e2e2e"/>
      </g>
      <g id="Group_86" data-name="Group 86">
        <rect id="Rectangle_66" data-name="Rectangle 66" width="25.284" height="1.85" transform="matrix(0.675, -0.737, 0.737, 0.675, 88.775, 135.032)" fill="#2e2e2e"/>
      </g>
    </g>
  </g>
</svg>
