<svg xmlns="http://www.w3.org/2000/svg" width="63.596" height="70.316" viewBox="0 0 63.596 70.316">
  <g id="Group_157" data-name="Group 157" transform="translate(-710.35 -81.852)">
    <g id="Group_153" data-name="Group 153">
      <path id="Path_78" data-name="Path 78" d="M726.094,152.168a1.056,1.056,0,0,1-.731-.292l-14.685-13.984a1.051,1.051,0,0,1-.328-.745,1.063,1.063,0,0,1,.3-.756l8.683-9.015a1.065,1.065,0,0,1,1.509-.025l1.953,1.9.136-.19a17.99,17.99,0,0,1,3.219-3.455,13.173,13.173,0,0,1,8.489-3.145,14.375,14.375,0,0,1,3.831.538,20.676,20.676,0,0,0,5.5.731h9.962a4.415,4.415,0,0,1,3.451,1.54,4.6,4.6,0,0,1,.462.658l.129.225,7.3-7.224a4.919,4.919,0,0,1,3.507-1.446c.091,0,.183,0,.274.006a5.592,5.592,0,0,1,3.45,1.446,4.207,4.207,0,0,1,.256,6.108l-10.214,12.016a8.21,8.21,0,0,1-1.567,1.423,11.2,11.2,0,0,1-6.145,1.592H739.674a27.559,27.559,0,0,0-3.159.183l-2.134.241,1.053,1.021a1.064,1.064,0,0,1,.02,1.508l-8.6,8.826A1.054,1.054,0,0,1,726.094,152.168ZM712.91,137.093l13.156,12.528,7.135-7.32L720.12,129.607Zm21.7-12.523a11.093,11.093,0,0,0-7.131,2.673,15.827,15.827,0,0,0-3.056,3.362l-.094.139,8.079,7.839,3.862-.433a29.472,29.472,0,0,1,3.4-.2h15.157a9.145,9.145,0,0,0,4.948-1.223,6.108,6.108,0,0,0,1.151-1.047l10.214-12.016a2.1,2.1,0,0,0-.079-3.179,3.437,3.437,0,0,0-2.277-.886,2.8,2.8,0,0,0-2.025.824l-8.251,8.166,0,.08a4.981,4.981,0,0,1-1.139,3.084,4.472,4.472,0,0,1-3.483,1.538h-8.672a1.059,1.059,0,1,1,0-2.118h8.672a2.33,2.33,0,0,0,1.869-.791,2.923,2.923,0,0,0,.638-1.876,2.465,2.465,0,0,0-2.467-2.666h-9.962a22.749,22.749,0,0,1-6.065-.807A12.351,12.351,0,0,0,734.614,124.57Z" fill="#2e2e2e"/>
    </g>
    <g id="_2_PT" data-name=" 2 PT">
      <g id="Group_156" data-name="Group 156">
        <g id="Group_154" data-name="Group 154">
          <path id="Path_79" data-name="Path 79" d="M743.979,116.823a.984.984,0,0,1-.955-.745l-.932-3.723a13.216,13.216,0,0,1-3.074-1.274l-3.281,1.976a1,1,0,0,1-.509.141.979.979,0,0,1-.7-.289l-2.417-2.417a.981.981,0,0,1-.148-1.2L733.942,106a13.223,13.223,0,0,1-1.274-3.073L728.947,102a.981.981,0,0,1-.746-.956V97.63a.983.983,0,0,1,.745-.955l3.721-.932a13.258,13.258,0,0,1,1.275-3.074l-1.977-3.281a.983.983,0,0,1,.15-1.206l2.417-2.417a.974.974,0,0,1,.7-.289.985.985,0,0,1,.507.14l3.282,1.978a13.2,13.2,0,0,1,3.074-1.274l.931-3.722a.983.983,0,0,1,.956-.746h3.414a.983.983,0,0,1,.956.746l.932,3.721a13.225,13.225,0,0,1,3.074,1.275l3.281-1.976a.984.984,0,0,1,1.205.149l2.418,2.417a.985.985,0,0,1,.148,1.205l-1.977,3.28a13.224,13.224,0,0,1,1.274,3.074l3.72.932a.983.983,0,0,1,.747.955v3.414a.984.984,0,0,1-.747.956l-3.72.932A13.2,13.2,0,0,1,757.43,106l1.976,3.282a.983.983,0,0,1-.147,1.2l-2.42,2.419a.975.975,0,0,1-.7.289.987.987,0,0,1-.508-.141l-3.281-1.977a13.194,13.194,0,0,1-3.073,1.273l-.932,3.722a.984.984,0,0,1-.955.747Zm2.645-1.97.888-3.55a.979.979,0,0,1,.742-.722,11.254,11.254,0,0,0,3.574-1.481.985.985,0,0,1,1.035-.012l3.129,1.885,1.329-1.329-1.886-3.129a.982.982,0,0,1,.013-1.036,11.237,11.237,0,0,0,1.48-3.573.983.983,0,0,1,.723-.741l3.551-.89V98.4l-3.55-.888a.984.984,0,0,1-.723-.741,11.214,11.214,0,0,0-1.48-3.573.983.983,0,0,1-.013-1.035l1.886-3.13L755.993,87.7l-3.129,1.884a.988.988,0,0,1-1.035-.011,11.208,11.208,0,0,0-3.575-1.481.978.978,0,0,1-.74-.724l-.89-3.55h-1.875l-.888,3.549a.984.984,0,0,1-.741.723,11.209,11.209,0,0,0-3.575,1.481.982.982,0,0,1-1.035.011L735.381,87.7l-1.329,1.328,1.886,3.129a.983.983,0,0,1-.012,1.034,11.217,11.217,0,0,0-1.481,3.576.984.984,0,0,1-.722.74l-3.552.89v1.876l3.549.889a.981.981,0,0,1,.723.741,11.224,11.224,0,0,0,1.48,3.573.982.982,0,0,1,.013,1.036l-1.886,3.129,1.329,1.329,3.129-1.886a.985.985,0,0,1,1.035.012,11.2,11.2,0,0,0,3.575,1.481.981.981,0,0,1,.74.722l.891,3.552Z" fill="#2e2e2e"/>
        </g>
        <g id="Group_155" data-name="Group 155">
          <path id="Path_80" data-name="Path 80" d="M745.686,107.719a8.382,8.382,0,1,1,8.382-8.382,8.391,8.391,0,0,1-8.382,8.382Zm0-14.793a6.411,6.411,0,1,0,6.411,6.411,6.418,6.418,0,0,0-6.411-6.411Z" fill="#2e2e2e"/>
        </g>
      </g>
    </g>
  </g>
</svg>
